<?xml version="1.0" encoding="UTF-8" standalone="no"?>
<!DOCTYPE svg PUBLIC "-//W3C//DTD SVG 1.1//EN"
 "http://www.w3.org/Graphics/SVG/1.1/DTD/svg11.dtd">
<!-- Generated by graphviz version 12.2.0 (0)
 -->
<!-- Title: source tree Pages: 1 -->
<svg width="576pt" height="719pt"
 viewBox="0.00 0.00 576.00 718.96" xmlns="http://www.w3.org/2000/svg" xmlns:xlink="http://www.w3.org/1999/xlink">
<g id="graph0" class="graph" transform="scale(0.520796 0.520796) rotate(0) translate(4 1376.5)">
<title>source tree</title>
<polygon fill="white" stroke="none" points="-4,4 -4,-1376.5 1102,-1376.5 1102,4 -4,4"/>
<g id="clust1" class="cluster">
<title>clustersrc</title>
<polygon fill="none" stroke="black" points="114,-44.45 114,-886.29 480,-886.29 480,-44.45 114,-44.45"/>
<text text-anchor="middle" x="297" y="-867.09" font-family="Helvetica,sans-Serif" font-size="16.00">src</text>
</g>
<g id="clust2" class="cluster">
<title>clustersrc/sdl</title>
<polygon fill="none" stroke="black" points="736,-44.45 736,-886.29 884,-886.29 884,-44.45 736,-44.45"/>
<text text-anchor="middle" x="810" y="-867.09" font-family="Helvetica,sans-Serif" font-size="16.00">src/sdl</text>
</g>
<g id="clust3" class="cluster">
<title>clustersrc/player</title>
<polygon fill="none" stroke="black" points="8,-44.45 8,-886.29 106,-886.29 106,-44.45 8,-44.45"/>
<text text-anchor="middle" x="57" y="-867.09" font-family="Helvetica,sans-Serif" font-size="16.00">src/player</text>
</g>
<g id="clust4" class="cluster">
<title>clustersrc/map</title>
<polygon fill="none" stroke="black" points="520,-44.45 520,-1328.05 728,-1328.05 728,-44.45 520,-44.45"/>
<text text-anchor="middle" x="624" y="-1308.85" font-family="Helvetica,sans-Serif" font-size="16.00">src/map</text>
</g>
<g id="clust5" class="cluster">
<title>clustersrc/entity</title>
<polygon fill="none" stroke="black" points="922,-44.45 922,-1328.05 1090,-1328.05 1090,-44.45 922,-44.45"/>
<text text-anchor="middle" x="1006" y="-1308.85" font-family="Helvetica,sans-Serif" font-size="16.00">src/entity</text>
</g>
<!-- game.h -->
<g id="node1" class="node">
<title>game.h</title>
<ellipse fill="none" stroke="black" cx="350" cy="-188.45" rx="38.56" ry="18"/>
<text text-anchor="middle" x="350" y="-183.4" font-family="Times,serif" font-size="14.00">game.h</text>
</g>
<!-- player.h -->
<g id="node4" class="node">
<title>player.h</title>
<ellipse fill="none" stroke="black" cx="57" cy="-188.45" rx="40.6" ry="18"/>
<text text-anchor="middle" x="57" y="-183.4" font-family="Times,serif" font-size="14.00">player.h</text>
</g>
<!-- game.h&#45;&gt;player.h -->
<g id="edge3" class="edge">
<title>game.h&#45;&gt;player.h</title>
<path fill="none" stroke="black" d="M311.1,-188.45C243.79,-188.45 176.47,-188.45 109.16,-188.45"/>
<polygon fill="black" stroke="black" points="109.43,-184.95 99.43,-188.45 109.43,-191.95 109.43,-184.95"/>
</g>
<!-- map.h -->
<g id="node7" class="node">
<title>map.h</title>
<ellipse fill="none" stroke="black" cx="686" cy="-589.45" rx="34.46" ry="18"/>
<text text-anchor="middle" x="686" y="-584.4" font-family="Times,serif" font-size="14.00">map.h</text>
</g>
<!-- game.h&#45;&gt;map.h -->
<g id="edge12" class="edge">
<title>game.h&#45;&gt;map.h</title>
<path fill="none" stroke="black" d="M363.45,-205.42C415.35,-267.06 602.91,-489.78 665.5,-564.11"/>
<polygon fill="black" stroke="black" points="662.73,-566.26 671.85,-571.65 668.09,-561.75 662.73,-566.26"/>
</g>
<!-- main.c -->
<g id="node2" class="node">
<title>main.c</title>
<ellipse fill="none" stroke="black" cx="259" cy="-589.45" rx="36.51" ry="18"/>
<text text-anchor="middle" x="259" y="-584.4" font-family="Times,serif" font-size="14.00">main.c</text>
</g>
<!-- main.c&#45;&gt;game.h -->
<g id="edge21" class="edge">
<title>main.c&#45;&gt;game.h</title>
<path fill="none" stroke="black" d="M262.91,-571.31C277.09,-509.15 325.88,-295.23 343.55,-217.75"/>
<polygon fill="black" stroke="black" points="346.96,-218.54 345.77,-208.01 340.13,-216.98 346.96,-218.54"/>
</g>
<!-- sdl.h -->
<g id="node3" class="node">
<title>sdl.h</title>
<ellipse fill="none" stroke="black" cx="773" cy="-188.45" rx="28.83" ry="18"/>
<text text-anchor="middle" x="773" y="-183.4" font-family="Times,serif" font-size="14.00">sdl.h</text>
</g>
<!-- main.c&#45;&gt;sdl.h -->
<g id="edge32" class="edge">
<title>main.c&#45;&gt;sdl.h</title>
<path fill="none" stroke="black" d="M277.9,-573.78C356.27,-512.95 655.77,-280.45 746.68,-209.88"/>
<polygon fill="black" stroke="black" points="748.58,-212.84 754.33,-203.94 744.29,-207.31 748.58,-212.84"/>
</g>
<!-- main.c&#45;&gt;player.h -->
<g id="edge20" class="edge">
<title>main.c&#45;&gt;player.h</title>
<path fill="none" stroke="black" d="M250.45,-571.56C218.96,-509.36 109.27,-292.69 70.61,-216.34"/>
<polygon fill="black" stroke="black" points="73.76,-214.82 66.12,-207.48 67.52,-217.98 73.76,-214.82"/>
</g>
<!-- sdl.h&#45;&gt;game.h -->
<g id="edge30" class="edge">
<title>sdl.h&#45;&gt;game.h</title>
<path fill="none" stroke="black" d="M774.99,-206.7C778.25,-247.25 779.54,-344.78 723,-388.95 611.98,-475.69 518.23,-474.13 406,-388.95 353.26,-348.92 347.32,-263.5 348.22,-218.16"/>
<polygon fill="black" stroke="black" points="351.71,-218.39 348.55,-208.28 344.71,-218.15 351.71,-218.39"/>
</g>
<!-- sdl.h&#45;&gt;map.h -->
<g id="edge1" class="edge">
<title>sdl.h&#45;&gt;map.h</title>
<path fill="none" stroke="black" d="M769.28,-206.53C755.75,-268.59 709.1,-482.5 692.19,-560.07"/>
<polygon fill="black" stroke="black" points="688.77,-559.31 690.06,-569.83 695.61,-560.81 688.77,-559.31"/>
</g>
<!-- gif.h -->
<g id="node9" class="node">
<title>gif.h</title>
<ellipse fill="none" stroke="black" cx="848" cy="-188.45" rx="28.32" ry="18"/>
<text text-anchor="middle" x="848" y="-183.4" font-family="Times,serif" font-size="14.00">gif.h</text>
</g>
<!-- player.h&#45;&gt;gif.h -->
<g id="edge9" class="edge">
<title>player.h&#45;&gt;gif.h</title>
<path fill="none" stroke="black" d="M56.18,-206.83C55.5,-247.66 60.35,-345.7 119,-388.95 363.3,-569.13 564.56,-578.08 802,-388.95 853.18,-348.19 854.66,-263.09 851.37,-217.98"/>
<polygon fill="black" stroke="black" points="854.87,-217.81 850.51,-208.16 847.9,-218.42 854.87,-217.81"/>
</g>
<!-- define.h -->
<g id="node10" class="node">
<title>define.h</title>
<ellipse fill="none" stroke="black" cx="163" cy="-589.45" rx="41.12" ry="18"/>
<text text-anchor="middle" x="163" y="-584.4" font-family="Times,serif" font-size="14.00">define.h</text>
</g>
<!-- player.h&#45;&gt;define.h -->
<g id="edge10" class="edge">
<title>player.h&#45;&gt;define.h</title>
<path fill="none" stroke="black" d="M61.54,-206.53C78.06,-268.71 135.09,-483.38 155.59,-560.55"/>
<polygon fill="black" stroke="black" points="152.11,-561.08 158.06,-569.85 158.87,-559.28 152.11,-561.08"/>
</g>
<!-- xml.h -->
<g id="node5" class="node">
<title>xml.h</title>
<ellipse fill="none" stroke="black" cx="439" cy="-188.45" rx="32.93" ry="18"/>
<text text-anchor="middle" x="439" y="-183.4" font-family="Times,serif" font-size="14.00">xml.h</text>
</g>
<!-- xml.c -->
<g id="node6" class="node">
<title>xml.c</title>
<ellipse fill="none" stroke="black" cx="440" cy="-589.45" rx="32.41" ry="18"/>
<text text-anchor="middle" x="440" y="-584.4" font-family="Times,serif" font-size="14.00">xml.c</text>
</g>
<!-- xml.c&#45;&gt;xml.h -->
<g id="edge28" class="edge">
<title>xml.c&#45;&gt;xml.h</title>
<path fill="none" stroke="black" d="M439.96,-571.05C439.8,-508.69 439.27,-295.99 439.07,-218.22"/>
<polygon fill="black" stroke="black" points="442.57,-218.45 439.05,-208.46 435.57,-218.47 442.57,-218.45"/>
</g>
<!-- map.h&#45;&gt;gif.h -->
<g id="edge17" class="edge">
<title>map.h&#45;&gt;gif.h</title>
<path fill="none" stroke="black" d="M692.86,-571.56C718.11,-509.36 806.08,-292.69 837.08,-216.34"/>
<polygon fill="black" stroke="black" points="840.14,-218.11 840.66,-207.53 833.66,-215.48 840.14,-218.11"/>
</g>
<!-- texture.h -->
<g id="node14" class="node">
<title>texture.h</title>
<ellipse fill="none" stroke="black" cx="654" cy="-188.45" rx="43.67" ry="18"/>
<text text-anchor="middle" x="654" y="-183.4" font-family="Times,serif" font-size="14.00">texture.h</text>
</g>
<!-- map.h&#45;&gt;texture.h -->
<g id="edge26" class="edge">
<title>map.h&#45;&gt;texture.h</title>
<path fill="none" stroke="black" d="M684.6,-571.05C679.59,-508.55 662.47,-295.01 656.26,-217.69"/>
<polygon fill="black" stroke="black" points="659.78,-217.69 655.49,-208.01 652.8,-218.25 659.78,-217.69"/>
</g>
<!-- global_entity.h -->
<g id="node16" class="node">
<title>global_entity.h</title>
<ellipse fill="none" stroke="black" cx="996" cy="-589.45" rx="66.19" ry="18"/>
<text text-anchor="middle" x="996" y="-584.4" font-family="Times,serif" font-size="14.00">global_entity.h</text>
</g>
<!-- map.h&#45;&gt;global_entity.h -->
<g id="edge14" class="edge">
<title>map.h&#45;&gt;global_entity.h</title>
<path fill="none" stroke="black" d="M683.57,-607.6C678.6,-653.34 672.89,-773.53 741,-827.7 798.74,-873.63 846.39,-869.77 907,-827.7 975.99,-779.83 991.59,-671.59 995.06,-619.1"/>
<polygon fill="black" stroke="black" points="998.54,-619.6 995.58,-609.42 991.55,-619.22 998.54,-619.6"/>
</g>
<!-- game.c -->
<g id="node8" class="node">
<title>game.c</title>
<ellipse fill="none" stroke="black" cx="352" cy="-589.45" rx="38.04" ry="18"/>
<text text-anchor="middle" x="352" y="-584.4" font-family="Times,serif" font-size="14.00">game.c</text>
</g>
<!-- game.c&#45;&gt;game.h -->
<g id="edge2" class="edge">
<title>game.c&#45;&gt;game.h</title>
<path fill="none" stroke="black" d="M351.91,-571.05C351.6,-508.69 350.53,-295.99 350.14,-218.22"/>
<polygon fill="black" stroke="black" points="353.65,-218.44 350.1,-208.46 346.65,-218.48 353.65,-218.44"/>
</g>
<!-- player.c -->
<g id="node11" class="node">
<title>player.c</title>
<ellipse fill="none" stroke="black" cx="57" cy="-589.45" rx="40.09" ry="18"/>
<text text-anchor="middle" x="57" y="-584.4" font-family="Times,serif" font-size="14.00">player.c</text>
</g>
<!-- player.c&#45;&gt;player.h -->
<g id="edge8" class="edge">
<title>player.c&#45;&gt;player.h</title>
<path fill="none" stroke="black" d="M57,-571.05C57,-508.69 57,-295.99 57,-218.22"/>
<polygon fill="black" stroke="black" points="60.5,-218.46 57,-208.46 53.5,-218.46 60.5,-218.46"/>
</g>
<!-- sdl.c -->
<g id="node12" class="node">
<title>sdl.c</title>
<ellipse fill="none" stroke="black" cx="772" cy="-589.45" rx="28.32" ry="18"/>
<text text-anchor="middle" x="772" y="-584.4" font-family="Times,serif" font-size="14.00">sdl.c</text>
</g>
<!-- sdl.c&#45;&gt;sdl.h -->
<g id="edge23" class="edge">
<title>sdl.c&#45;&gt;sdl.h</title>
<path fill="none" stroke="black" d="M772.04,-571.05C772.2,-508.69 772.73,-295.99 772.93,-218.22"/>
<polygon fill="black" stroke="black" points="776.43,-218.47 772.95,-208.46 769.43,-218.45 776.43,-218.47"/>
</g>
<!-- sdl.c&#45;&gt;player.h -->
<g id="edge15" class="edge">
<title>sdl.c&#45;&gt;player.h</title>
<path fill="none" stroke="black" d="M751.37,-576.94C651.49,-521.2 217.74,-279.15 91.55,-208.74"/>
<polygon fill="black" stroke="black" points="93.41,-205.77 82.98,-203.95 90,-211.88 93.41,-205.77"/>
</g>
<!-- sdl.c&#45;&gt;map.h -->
<g id="edge4" class="edge">
<title>sdl.c&#45;&gt;map.h</title>
<path fill="none" stroke="black" d="M743.28,-589.45C739.55,-589.45 735.83,-589.45 732.11,-589.45"/>
<polygon fill="black" stroke="black" points="732.45,-585.95 722.45,-589.45 732.45,-592.95 732.45,-585.95"/>
</g>
<!-- gif.c -->
<g id="node13" class="node">
<title>gif.c</title>
<ellipse fill="none" stroke="black" cx="846" cy="-589.45" rx="27.81" ry="18"/>
<text text-anchor="middle" x="846" y="-584.4" font-family="Times,serif" font-size="14.00">gif.c</text>
</g>
<!-- gif.c&#45;&gt;sdl.h -->
<g id="edge19" class="edge">
<title>gif.c&#45;&gt;sdl.h</title>
<path fill="none" stroke="black" d="M842.86,-571.31C831.49,-509.15 792.35,-295.23 778.18,-217.75"/>
<polygon fill="black" stroke="black" points="781.64,-217.23 776.4,-208.02 774.75,-218.49 781.64,-217.23"/>
</g>
<!-- gif.c&#45;&gt;gif.h -->
<g id="edge7" class="edge">
<title>gif.c&#45;&gt;gif.h</title>
<path fill="none" stroke="black" d="M846.09,-571.05C846.4,-508.69 847.47,-295.99 847.86,-218.22"/>
<polygon fill="black" stroke="black" points="851.35,-218.48 847.9,-208.46 844.35,-218.44 851.35,-218.48"/>
</g>
<!-- texture.h&#45;&gt;gif.h -->
<g id="edge25" class="edge">
<title>texture.h&#45;&gt;gif.h</title>
<path fill="none" stroke="black" d="M655.53,-206.75C660.05,-247.87 677.39,-347.22 741,-388.95 763.67,-403.83 780.79,-405.85 802,-388.95 853.18,-348.19 854.66,-263.09 851.37,-217.98"/>
<polygon fill="black" stroke="black" points="854.87,-217.81 850.51,-208.16 847.9,-218.42 854.87,-217.81"/>
</g>
<!-- map.c -->
<g id="node15" class="node">
<title>map.c</title>
<ellipse fill="none" stroke="black" cx="633" cy="-1030.45" rx="33.95" ry="18"/>
<text text-anchor="middle" x="633" y="-1025.4" font-family="Times,serif" font-size="14.00">map.c</text>
</g>
<!-- map.c&#45;&gt;sdl.h -->
<g id="edge11" class="edge">
<title>map.c&#45;&gt;sdl.h</title>
<path fill="none" stroke="black" d="M648.04,-1013.87C694.4,-964.61 834.92,-805.82 883,-642.95 930.46,-482.21 829.37,-285.1 788.84,-215.38"/>
<polygon fill="black" stroke="black" points="791.97,-213.8 783.87,-206.98 785.94,-217.37 791.97,-213.8"/>
</g>
<!-- map.c&#45;&gt;xml.h -->
<g id="edge16" class="edge">
<title>map.c&#45;&gt;xml.h</title>
<path fill="none" stroke="black" d="M627.19,-1012.3C609.1,-958.45 553,-787.68 519,-642.95 481.67,-484.03 453,-290.12 442.92,-218.13"/>
<polygon fill="black" stroke="black" points="446.41,-217.82 441.56,-208.4 439.47,-218.78 446.41,-217.82"/>
</g>
<!-- map.c&#45;&gt;map.h -->
<g id="edge27" class="edge">
<title>map.c&#45;&gt;map.h</title>
<path fill="none" stroke="black" d="M635.08,-1012.24C643.15,-945.38 672.48,-702.42 682.57,-618.89"/>
<polygon fill="black" stroke="black" points="686.03,-619.39 683.76,-609.05 679.08,-618.55 686.03,-619.39"/>
</g>
<!-- map.c&#45;&gt;define.h -->
<g id="edge24" class="edge">
<title>map.c&#45;&gt;define.h</title>
<path fill="none" stroke="black" d="M616.22,-1014.73C558.81,-964.2 365.29,-792.65 213,-642.95 203.75,-633.86 193.84,-623.58 185.31,-614.54"/>
<polygon fill="black" stroke="black" points="188.04,-612.34 178.65,-607.44 182.94,-617.13 188.04,-612.34"/>
</g>
<!-- map.c&#45;&gt;texture.h -->
<g id="edge29" class="edge">
<title>map.c&#45;&gt;texture.h</title>
<path fill="none" stroke="black" d="M633.34,-1011.98C634.52,-951.18 638.65,-743.19 643,-571.45 646.34,-439.32 651.15,-281.5 653.11,-217.99"/>
<polygon fill="black" stroke="black" points="656.61,-218.2 653.42,-208.1 649.61,-217.99 656.61,-218.2"/>
</g>
<!-- global_entity.h&#45;&gt;gif.h -->
<g id="edge13" class="edge">
<title>global_entity.h&#45;&gt;gif.h</title>
<path fill="none" stroke="black" d="M989.55,-571.05C966.31,-508.42 886.83,-294.14 858.3,-217.22"/>
<polygon fill="black" stroke="black" points="861.61,-216.08 854.85,-207.92 855.04,-218.51 861.61,-216.08"/>
</g>
<!-- global_entity.h&#45;&gt;define.h -->
<g id="edge6" class="edge">
<title>global_entity.h&#45;&gt;define.h</title>
<path fill="none" stroke="black" d="M995.66,-607.91C993.7,-654.36 981.37,-776.1 907,-827.7 656.88,-1001.27 461.76,-1015.33 222,-827.7 158.31,-777.86 156.63,-670.98 160.02,-619.02"/>
<polygon fill="black" stroke="black" points="163.5,-619.39 160.78,-609.15 156.52,-618.85 163.5,-619.39"/>
</g>
<!-- entity.h -->
<g id="node19" class="node">
<title>entity.h</title>
<ellipse fill="none" stroke="black" cx="1019" cy="-188.45" rx="38.56" ry="18"/>
<text text-anchor="middle" x="1019" y="-183.4" font-family="Times,serif" font-size="14.00">entity.h</text>
</g>
<!-- global_entity.h&#45;&gt;entity.h -->
<g id="edge31" class="edge">
<title>global_entity.h&#45;&gt;entity.h</title>
<path fill="none" stroke="black" d="M997,-571.05C1000.6,-508.69 1012.86,-295.99 1017.34,-218.22"/>
<polygon fill="black" stroke="black" points="1020.82,-218.64 1017.9,-208.46 1013.83,-218.24 1020.82,-218.64"/>
</g>
<!-- texture.c -->
<g id="node17" class="node">
<title>texture.c</title>
<ellipse fill="none" stroke="black" cx="571" cy="-589.45" rx="43.16" ry="18"/>
<text text-anchor="middle" x="571" y="-584.4" font-family="Times,serif" font-size="14.00">texture.c</text>
</g>
<!-- texture.c&#45;&gt;texture.h -->
<g id="edge5" class="edge">
<title>texture.c&#45;&gt;texture.h</title>
<path fill="none" stroke="black" d="M574.62,-571.05C587.62,-508.55 632.04,-295.01 648.13,-217.69"/>
<polygon fill="black" stroke="black" points="651.54,-218.48 650.15,-207.98 644.68,-217.06 651.54,-218.48"/>
</g>
<!-- entity.c -->
<g id="node18" class="node">
<title>entity.c</title>
<ellipse fill="none" stroke="black" cx="1020" cy="-1030.45" rx="38.04" ry="18"/>
<text text-anchor="middle" x="1020" y="-1025.4" font-family="Times,serif" font-size="14.00">entity.c</text>
</g>
<!-- entity.c&#45;&gt;global_entity.h -->
<g id="edge18" class="edge">
<title>entity.c&#45;&gt;global_entity.h</title>
<path fill="none" stroke="black" d="M1019.04,-1011.97C1015.37,-944.71 1002.11,-702.19 997.55,-618.83"/>
<polygon fill="black" stroke="black" points="1001.06,-618.81 997.01,-609.02 994.07,-619.2 1001.06,-618.81"/>
</g>
<!-- entity.c&#45;&gt;entity.h -->
<g id="edge22" class="edge">
<title>entity.c&#45;&gt;entity.h</title>
<path fill="none" stroke="black" d="M1024.1,-1012.45C1038.14,-952.35 1082.71,-744.27 1071,-571.45 1061.99,-438.46 1035.53,-281.19 1024.22,-217.91"/>
<polygon fill="black" stroke="black" points="1027.72,-217.59 1022.5,-208.37 1020.83,-218.83 1027.72,-217.59"/>
</g>
</g>
</svg>
