<?xml version="1.0" encoding="UTF-8" standalone="no"?>
<!DOCTYPE svg PUBLIC "-//W3C//DTD SVG 1.1//EN"
 "http://www.w3.org/Graphics/SVG/1.1/DTD/svg11.dtd">
<!-- Generated by graphviz version 12.2.0 (0)
 -->
<!-- Title: source tree Pages: 1 -->
<svg width="576pt" height="719pt"
 viewBox="0.00 0.00 576.00 718.92" xmlns="http://www.w3.org/2000/svg" xmlns:xlink="http://www.w3.org/1999/xlink">
<g id="graph0" class="graph" transform="scale(0.540338 0.540338) rotate(0) translate(4 1326.5)">
<title>source tree</title>
<polygon fill="white" stroke="none" points="-4,4 -4,-1326.5 1062,-1326.5 1062,4 -4,4"/>
<g id="clust1" class="cluster">
<title>clustersrc</title>
<polygon fill="none" stroke="black" points="391,-32.4 391,-646.06 758,-646.06 758,-32.4 391,-32.4"/>
<text text-anchor="middle" x="574.5" y="-626.86" font-family="Helvetica,sans-Serif" font-size="16.00">src</text>
</g>
<g id="clust2" class="cluster">
<title>clustersrc/sdl</title>
<polygon fill="none" stroke="black" points="205,-32.4 205,-646.06 353,-646.06 353,-32.4 205,-32.4"/>
<text text-anchor="middle" x="279" y="-626.86" font-family="Helvetica,sans-Serif" font-size="16.00">src/sdl</text>
</g>
<g id="clust3" class="cluster">
<title>clustersrc/player</title>
<polygon fill="none" stroke="black" points="796,-32.4 796,-646.06 894,-646.06 894,-32.4 796,-32.4"/>
<text text-anchor="middle" x="845" y="-626.86" font-family="Helvetica,sans-Serif" font-size="16.00">src/player</text>
</g>
<g id="clust4" class="cluster">
<title>clustersrc/map</title>
<polygon fill="none" stroke="black" points="8,-324.04 8,-1290.1 197,-1290.1 197,-324.04 8,-324.04"/>
<text text-anchor="middle" x="102.5" y="-1270.9" font-family="Helvetica,sans-Serif" font-size="16.00">src/map</text>
</g>
<g id="clust5" class="cluster">
<title>clustersrc/entity</title>
<polygon fill="none" stroke="black" points="902,-32.4 902,-968.08 1050,-968.08 1050,-32.4 902,-32.4"/>
<text text-anchor="middle" x="976" y="-948.88" font-family="Helvetica,sans-Serif" font-size="16.00">src/entity</text>
</g>
<!-- game.h -->
<g id="node1" class="node">
<title>game.h</title>
<ellipse fill="none" stroke="black" cx="438" cy="-137.4" rx="38.56" ry="18"/>
<text text-anchor="middle" x="438" y="-132.35" font-family="Times,serif" font-size="14.00">game.h</text>
</g>
<!-- player.h -->
<g id="node4" class="node">
<title>player.h</title>
<ellipse fill="none" stroke="black" cx="845" cy="-137.4" rx="40.6" ry="18"/>
<text text-anchor="middle" x="845" y="-132.35" font-family="Times,serif" font-size="14.00">player.h</text>
</g>
<!-- game.h&#45;&gt;player.h -->
<g id="edge12" class="edge">
<title>game.h&#45;&gt;player.h</title>
<path fill="none" stroke="black" d="M453.28,-153.93C483.88,-185.68 556.45,-254.27 634,-279.4 684.31,-295.71 706.53,-304.67 753,-279.4 797.05,-255.45 823.26,-200.31 835.84,-166.22"/>
<polygon fill="black" stroke="black" points="839.08,-167.56 839.08,-156.97 832.47,-165.24 839.08,-167.56"/>
</g>
<!-- map.h -->
<g id="node7" class="node">
<title>map.h</title>
<ellipse fill="none" stroke="black" cx="155" cy="-751.4" rx="34.46" ry="18"/>
<text text-anchor="middle" x="155" y="-746.35" font-family="Times,serif" font-size="14.00">map.h</text>
</g>
<!-- game.h&#45;&gt;map.h -->
<g id="edge19" class="edge">
<title>game.h&#45;&gt;map.h</title>
<path fill="none" stroke="black" d="M436.48,-155.72C431.39,-207.62 412.08,-365.55 357,-482.9 309.71,-583.66 220.34,-683.17 178.15,-727.06"/>
<polygon fill="black" stroke="black" points="175.88,-724.38 171.43,-733.99 180.9,-729.25 175.88,-724.38"/>
</g>
<!-- main.c -->
<g id="node2" class="node">
<title>main.c</title>
<ellipse fill="none" stroke="black" cx="436" cy="-429.4" rx="36.51" ry="18"/>
<text text-anchor="middle" x="436" y="-424.35" font-family="Times,serif" font-size="14.00">main.c</text>
</g>
<!-- main.c&#45;&gt;game.h -->
<g id="edge18" class="edge">
<title>main.c&#45;&gt;game.h</title>
<path fill="none" stroke="black" d="M436.12,-411.13C436.45,-362.88 437.39,-226.29 437.8,-166.74"/>
<polygon fill="black" stroke="black" points="441.3,-167.12 437.87,-157.1 434.3,-167.08 441.3,-167.12"/>
</g>
<!-- sdl.h -->
<g id="node3" class="node">
<title>sdl.h</title>
<ellipse fill="none" stroke="black" cx="316" cy="-137.4" rx="28.83" ry="18"/>
<text text-anchor="middle" x="316" y="-132.35" font-family="Times,serif" font-size="14.00">sdl.h</text>
</g>
<!-- main.c&#45;&gt;sdl.h -->
<g id="edge9" class="edge">
<title>main.c&#45;&gt;sdl.h</title>
<path fill="none" stroke="black" d="M429.03,-411.56C409.1,-363.41 351.77,-224.85 327.29,-165.7"/>
<polygon fill="black" stroke="black" points="330.63,-164.6 323.57,-156.69 324.16,-167.27 330.63,-164.6"/>
</g>
<!-- main.c&#45;&gt;player.h -->
<g id="edge23" class="edge">
<title>main.c&#45;&gt;player.h</title>
<path fill="none" stroke="black" d="M456.28,-414.02C523.04,-366.69 736.15,-215.58 815.16,-159.56"/>
<polygon fill="black" stroke="black" points="816.74,-162.73 822.87,-154.09 812.69,-157.02 816.74,-162.73"/>
</g>
<!-- sdl.h&#45;&gt;map.h -->
<g id="edge17" class="edge">
<title>sdl.h&#45;&gt;map.h</title>
<path fill="none" stroke="black" d="M307.22,-154.91C285.9,-195.77 231.12,-305.45 204,-403.4 172.03,-518.88 160.25,-662.04 156.52,-721.95"/>
<polygon fill="black" stroke="black" points="153.04,-721.41 155.94,-731.6 160.03,-721.83 153.04,-721.41"/>
</g>
<!-- gif.h -->
<g id="node9" class="node">
<title>gif.h</title>
<ellipse fill="none" stroke="black" cx="241" cy="-137.4" rx="28.32" ry="18"/>
<text text-anchor="middle" x="241" y="-132.35" font-family="Times,serif" font-size="14.00">gif.h</text>
</g>
<!-- player.h&#45;&gt;gif.h -->
<g id="edge13" class="edge">
<title>player.h&#45;&gt;gif.h</title>
<path fill="none" stroke="black" d="M839.59,-155.54C828.96,-187.44 802.03,-252.75 753,-279.4 571.04,-378.33 454.5,-401.22 287,-279.4 251.72,-253.75 242.95,-200.44 241.08,-166.93"/>
<polygon fill="black" stroke="black" points="244.58,-166.95 240.72,-157.09 237.58,-167.21 244.58,-166.95"/>
</g>
<!-- define.h -->
<g id="node10" class="node">
<title>define.h</title>
<ellipse fill="none" stroke="black" cx="709" cy="-429.4" rx="41.12" ry="18"/>
<text text-anchor="middle" x="709" y="-424.35" font-family="Times,serif" font-size="14.00">define.h</text>
</g>
<!-- player.h&#45;&gt;define.h -->
<g id="edge26" class="edge">
<title>player.h&#45;&gt;define.h</title>
<path fill="none" stroke="black" d="M837.08,-155.3C814.47,-203.51 749.49,-342.07 721.77,-401.17"/>
<polygon fill="black" stroke="black" points="718.62,-399.65 717.54,-410.19 724.96,-402.62 718.62,-399.65"/>
</g>
<!-- xml.h -->
<g id="node5" class="node">
<title>xml.h</title>
<ellipse fill="none" stroke="black" cx="667" cy="-137.4" rx="32.93" ry="18"/>
<text text-anchor="middle" x="667" y="-132.35" font-family="Times,serif" font-size="14.00">xml.h</text>
</g>
<!-- xml.c -->
<g id="node6" class="node">
<title>xml.c</title>
<ellipse fill="none" stroke="black" cx="617" cy="-429.4" rx="32.41" ry="18"/>
<text text-anchor="middle" x="617" y="-424.35" font-family="Times,serif" font-size="14.00">xml.c</text>
</g>
<!-- xml.c&#45;&gt;xml.h -->
<g id="edge28" class="edge">
<title>xml.c&#45;&gt;xml.h</title>
<path fill="none" stroke="black" d="M619.98,-411.13C628.3,-362.88 651.85,-226.29 662.11,-166.74"/>
<polygon fill="black" stroke="black" points="665.53,-167.53 663.78,-157.08 658.63,-166.34 665.53,-167.53"/>
</g>
<!-- map.h&#45;&gt;gif.h -->
<g id="edge2" class="edge">
<title>map.h&#45;&gt;gif.h</title>
<path fill="none" stroke="black" d="M143.85,-734.04C111.29,-684.13 21.01,-529.62 60,-403.4 91.46,-301.56 176.99,-203.93 218.2,-161.1"/>
<polygon fill="black" stroke="black" points="220.52,-163.73 225,-154.13 215.51,-158.85 220.52,-163.73"/>
</g>
<!-- map.h&#45;&gt;define.h -->
<g id="edge14" class="edge">
<title>map.h&#45;&gt;define.h</title>
<path fill="none" stroke="black" d="M181.8,-739.68C259.85,-707.74 491.94,-607.67 658,-482.9 668.62,-474.92 679.08,-464.7 687.73,-455.4"/>
<polygon fill="black" stroke="black" points="690.31,-457.77 694.41,-447.99 685.11,-453.08 690.31,-457.77"/>
</g>
<!-- texture.h -->
<g id="node14" class="node">
<title>texture.h</title>
<ellipse fill="none" stroke="black" cx="113" cy="-429.4" rx="43.67" ry="18"/>
<text text-anchor="middle" x="113" y="-424.35" font-family="Times,serif" font-size="14.00">texture.h</text>
</g>
<!-- map.h&#45;&gt;texture.h -->
<g id="edge21" class="edge">
<title>map.h&#45;&gt;texture.h</title>
<path fill="none" stroke="black" d="M152.74,-733.2C145.89,-681 125.29,-524.04 116.76,-459.06"/>
<polygon fill="black" stroke="black" points="120.24,-458.65 115.47,-449.19 113.3,-459.57 120.24,-458.65"/>
</g>
<!-- global_entity.h -->
<g id="node16" class="node">
<title>global_entity.h</title>
<ellipse fill="none" stroke="black" cx="976" cy="-429.4" rx="66.19" ry="18"/>
<text text-anchor="middle" x="976" y="-424.35" font-family="Times,serif" font-size="14.00">global_entity.h</text>
</g>
<!-- map.h&#45;&gt;global_entity.h -->
<g id="edge4" class="edge">
<title>map.h&#45;&gt;global_entity.h</title>
<path fill="none" stroke="black" d="M185.48,-742.37C288.91,-714.49 634.76,-616.29 898,-482.9 914.44,-474.57 931.56,-463.37 945.55,-453.46"/>
<polygon fill="black" stroke="black" points="947.42,-456.43 953.47,-447.74 943.32,-450.76 947.42,-456.43"/>
</g>
<!-- game.c -->
<g id="node8" class="node">
<title>game.c</title>
<ellipse fill="none" stroke="black" cx="529" cy="-429.4" rx="38.04" ry="18"/>
<text text-anchor="middle" x="529" y="-424.35" font-family="Times,serif" font-size="14.00">game.c</text>
</g>
<!-- game.c&#45;&gt;game.h -->
<g id="edge24" class="edge">
<title>game.c&#45;&gt;game.h</title>
<path fill="none" stroke="black" d="M523.58,-411.13C508.41,-362.78 465.4,-225.72 446.78,-166.37"/>
<polygon fill="black" stroke="black" points="450.18,-165.52 443.84,-157.03 443.5,-167.62 450.18,-165.52"/>
</g>
<!-- player.c -->
<g id="node11" class="node">
<title>player.c</title>
<ellipse fill="none" stroke="black" cx="846" cy="-429.4" rx="40.09" ry="18"/>
<text text-anchor="middle" x="846" y="-424.35" font-family="Times,serif" font-size="14.00">player.c</text>
</g>
<!-- player.c&#45;&gt;player.h -->
<g id="edge5" class="edge">
<title>player.c&#45;&gt;player.h</title>
<path fill="none" stroke="black" d="M845.94,-411.13C845.77,-362.88 845.3,-226.29 845.1,-166.74"/>
<polygon fill="black" stroke="black" points="848.6,-167.09 845.06,-157.1 841.6,-167.11 848.6,-167.09"/>
</g>
<!-- sdl.c -->
<g id="node12" class="node">
<title>sdl.c</title>
<ellipse fill="none" stroke="black" cx="315" cy="-429.4" rx="28.32" ry="18"/>
<text text-anchor="middle" x="315" y="-424.35" font-family="Times,serif" font-size="14.00">sdl.c</text>
</g>
<!-- sdl.c&#45;&gt;game.h -->
<g id="edge29" class="edge">
<title>sdl.c&#45;&gt;game.h</title>
<path fill="none" stroke="black" d="M322.14,-411.56C342.57,-363.41 401.34,-224.85 426.42,-165.7"/>
<polygon fill="black" stroke="black" points="429.56,-167.26 430.24,-156.69 423.12,-164.53 429.56,-167.26"/>
</g>
<!-- sdl.c&#45;&gt;sdl.h -->
<g id="edge27" class="edge">
<title>sdl.c&#45;&gt;sdl.h</title>
<path fill="none" stroke="black" d="M315.06,-411.13C315.23,-362.88 315.7,-226.29 315.9,-166.74"/>
<polygon fill="black" stroke="black" points="319.4,-167.11 315.94,-157.1 312.4,-167.09 319.4,-167.11"/>
</g>
<!-- sdl.c&#45;&gt;player.h -->
<g id="edge11" class="edge">
<title>sdl.c&#45;&gt;player.h</title>
<path fill="none" stroke="black" d="M336.1,-416.86C417.18,-372.5 709.13,-212.75 810.24,-157.42"/>
<polygon fill="black" stroke="black" points="811.82,-160.55 818.91,-152.68 808.46,-154.41 811.82,-160.55"/>
</g>
<!-- gif.c -->
<g id="node13" class="node">
<title>gif.c</title>
<ellipse fill="none" stroke="black" cx="241" cy="-429.4" rx="27.81" ry="18"/>
<text text-anchor="middle" x="241" y="-424.35" font-family="Times,serif" font-size="14.00">gif.c</text>
</g>
<!-- gif.c&#45;&gt;sdl.h -->
<g id="edge3" class="edge">
<title>gif.c&#45;&gt;sdl.h</title>
<path fill="none" stroke="black" d="M245.36,-411.56C257.75,-363.62 293.33,-226.08 308.74,-166.49"/>
<polygon fill="black" stroke="black" points="312.04,-167.68 311.16,-157.13 305.27,-165.93 312.04,-167.68"/>
</g>
<!-- gif.c&#45;&gt;gif.h -->
<g id="edge25" class="edge">
<title>gif.c&#45;&gt;gif.h</title>
<path fill="none" stroke="black" d="M241,-411.13C241,-362.88 241,-226.29 241,-166.74"/>
<polygon fill="black" stroke="black" points="244.5,-167.1 241,-157.1 237.5,-167.1 244.5,-167.1"/>
</g>
<!-- texture.h&#45;&gt;gif.h -->
<g id="edge6" class="edge">
<title>texture.h&#45;&gt;gif.h</title>
<path fill="none" stroke="black" d="M120.44,-411.56C141.74,-363.29 203.13,-224.19 229.14,-165.28"/>
<polygon fill="black" stroke="black" points="232.26,-166.88 233.09,-156.32 225.85,-164.05 232.26,-166.88"/>
</g>
<!-- map.c -->
<g id="node15" class="node">
<title>map.c</title>
<ellipse fill="none" stroke="black" cx="155" cy="-1073.4" rx="33.95" ry="18"/>
<text text-anchor="middle" x="155" y="-1068.35" font-family="Times,serif" font-size="14.00">map.c</text>
</g>
<!-- map.c&#45;&gt;xml.h -->
<g id="edge20" class="edge">
<title>map.c&#45;&gt;xml.h</title>
<path fill="none" stroke="black" d="M177.77,-1059.65C272.05,-1005.34 632.84,-782.33 759,-482.9 807.17,-368.58 723.54,-222.13 684.95,-163.91"/>
<polygon fill="black" stroke="black" points="688.08,-162.3 679.58,-155.97 682.28,-166.22 688.08,-162.3"/>
</g>
<!-- map.c&#45;&gt;map.h -->
<g id="edge22" class="edge">
<title>map.c&#45;&gt;map.h</title>
<path fill="none" stroke="black" d="M155,-1055.2C155,-1003 155,-846.04 155,-781.06"/>
<polygon fill="black" stroke="black" points="158.5,-781.21 155,-771.21 151.5,-781.21 158.5,-781.21"/>
</g>
<!-- map.c&#45;&gt;define.h -->
<g id="edge15" class="edge">
<title>map.c&#45;&gt;define.h</title>
<path fill="none" stroke="black" d="M168.69,-1056.53C242.93,-970.51 597.07,-560.12 687.79,-454.98"/>
<polygon fill="black" stroke="black" points="690.16,-457.59 694.05,-447.73 684.87,-453.02 690.16,-457.59"/>
</g>
<!-- global_entity.h&#45;&gt;gif.h -->
<g id="edge7" class="edge">
<title>global_entity.h&#45;&gt;gif.h</title>
<path fill="none" stroke="black" d="M937.86,-414.37C832.2,-375.31 527.1,-261.24 278,-155.4 276.5,-154.77 274.96,-154.1 273.41,-153.43"/>
<polygon fill="black" stroke="black" points="275.15,-150.37 264.59,-149.48 272.29,-156.76 275.15,-150.37"/>
</g>
<!-- global_entity.h&#45;&gt;define.h -->
<g id="edge1" class="edge">
<title>global_entity.h&#45;&gt;define.h</title>
<path fill="none" stroke="black" d="M973.45,-447.77C967.09,-485.68 946.65,-572.1 889,-608.15 855.84,-628.89 834.39,-628.52 801,-608.15 747.46,-575.5 723.75,-500.62 714.38,-458.88"/>
<polygon fill="black" stroke="black" points="717.84,-458.35 712.37,-449.29 710.99,-459.79 717.84,-458.35"/>
</g>
<!-- entity.h -->
<g id="node19" class="node">
<title>entity.h</title>
<ellipse fill="none" stroke="black" cx="976" cy="-137.4" rx="38.56" ry="18"/>
<text text-anchor="middle" x="976" y="-132.35" font-family="Times,serif" font-size="14.00">entity.h</text>
</g>
<!-- global_entity.h&#45;&gt;entity.h -->
<g id="edge10" class="edge">
<title>global_entity.h&#45;&gt;entity.h</title>
<path fill="none" stroke="black" d="M976,-411.13C976,-362.88 976,-226.29 976,-166.74"/>
<polygon fill="black" stroke="black" points="979.5,-167.1 976,-157.1 972.5,-167.1 979.5,-167.1"/>
</g>
<!-- texture.c -->
<g id="node17" class="node">
<title>texture.c</title>
<ellipse fill="none" stroke="black" cx="59" cy="-751.4" rx="43.16" ry="18"/>
<text text-anchor="middle" x="59" y="-746.35" font-family="Times,serif" font-size="14.00">texture.c</text>
</g>
<!-- texture.c&#45;&gt;texture.h -->
<g id="edge8" class="edge">
<title>texture.c&#45;&gt;texture.h</title>
<path fill="none" stroke="black" d="M61.9,-733.2C70.73,-680.89 97.31,-523.39 108.23,-458.66"/>
<polygon fill="black" stroke="black" points="111.62,-459.63 109.83,-449.19 104.72,-458.46 111.62,-459.63"/>
</g>
<!-- entity.c -->
<g id="node18" class="node">
<title>entity.c</title>
<ellipse fill="none" stroke="black" cx="976" cy="-751.4" rx="38.04" ry="18"/>
<text text-anchor="middle" x="976" y="-746.35" font-family="Times,serif" font-size="14.00">entity.c</text>
</g>
<!-- entity.c&#45;&gt;global_entity.h -->
<g id="edge16" class="edge">
<title>entity.c&#45;&gt;global_entity.h</title>
<path fill="none" stroke="black" d="M976,-733.2C976,-681 976,-524.04 976,-459.06"/>
<polygon fill="black" stroke="black" points="979.5,-459.21 976,-449.21 972.5,-459.21 979.5,-459.21"/>
</g>
</g>
</svg>
